<svg xmlns="http://www.w3.org/2000/svg" viewBox="0 0 720 160" width="540" height="120">
  <defs>
    <linearGradient id="e-pc" x1="0%" y1="0%" x2="100%" y2="100%"><stop offset="0%" stop-color="#7dd3fc"/><stop offset="50%" stop-color="#c4b5fd"/><stop offset="100%" stop-color="#5eead4"/></linearGradient>
    <radialGradient id="e-gl" cx="50%" cy="45%" r="45%"><stop offset="0%" stop-color="#7dd3fc" stop-opacity="0.18"/><stop offset="100%" stop-color="#7dd3fc" stop-opacity="0"/></radialGradient>
    <linearGradient id="e-sg" x1="0%" y1="0%" x2="100%" y2="100%"><stop offset="0%" stop-color="#7dd3fc" stop-opacity="0.6"/><stop offset="100%" stop-color="#5eead4" stop-opacity="0.2"/></linearGradient>
  </defs>
  <g transform="translate(80,80)">
    <circle cx="0" cy="-4" r="56" fill="url(#e-gl)"/>
    <g transform="translate(0,-30)" stroke="url(#e-sg)" fill="none" stroke-linecap="round"><path d="M-12,-18 A22,22 0 0,1 12,-18" stroke-width="1.8" opacity="0.45"/><path d="M-20,-30 A36,36 0 0,1 20,-30" stroke-width="1.4" opacity="0.3"/><path d="M-28,-40 A48,48 0 0,1 28,-40" stroke-width="1" opacity="0.18"/></g>
    <path d="M0,-42 L-34,2 L0,52 Z" fill="#12121a" stroke="#1e1e2e" stroke-width="0.8"/><path d="M0,-42 L34,2 L0,52 Z" fill="#161622" stroke="#1e1e2e" stroke-width="0.8"/>
    <path d="M0,-42 L-34,2" stroke="#7dd3fc" stroke-width="1.2" opacity="0.5"/><path d="M0,-42 L34,2" stroke="#c4b5fd" stroke-width="1.2" opacity="0.4"/><path d="M-34,2 L0,52" stroke="#5eead4" stroke-width="1.2" opacity="0.35"/><path d="M34,2 L0,52" stroke="#86efac" stroke-width="1.2" opacity="0.3"/>
    <line x1="-34" y1="2" x2="34" y2="2" stroke="#2e2e4a" stroke-width="0.8"/>
    <path d="M0,-14 L-10,2 L0,18 L10,2 Z" fill="none" stroke="url(#e-pc)" stroke-width="1.8"/>
    <circle cx="0" cy="2" r="2.5" fill="#7dd3fc"/><circle cx="0" cy="2" r="5" fill="none" stroke="#7dd3fc" stroke-width="0.7" opacity="0.4"/>
    <circle cx="0" cy="-14" r="1.5" fill="#7dd3fc"/><circle cx="-10" cy="2" r="1.5" fill="#c4b5fd"/><circle cx="10" cy="2" r="1.5" fill="#86efac"/><circle cx="0" cy="18" r="1.5" fill="#5eead4"/>
  </g>
  <g transform="translate(148,80)">
    <text y="2" font-family="'JetBrains Mono','SF Mono',monospace" font-size="32" font-weight="500" letter-spacing="1" fill="#8585ad">domain<tspan fill="#f4f4ff" font-weight="700">-probe</tspan></text>
    <text y="26" font-family="'JetBrains Mono','SF Mono',monospace" font-size="11" font-weight="400" letter-spacing="2" fill="#555580">DOMAIN INTELLIGENCE · FAST · THOROUGH</text>
    <g transform="translate(0,38)"><rect x="0" y="0" width="18" height="4" rx="1" fill="#86efac"/><rect x="22" y="0" width="18" height="4" rx="1" fill="#7dd3fc"/><rect x="44" y="0" width="18" height="4" rx="1" fill="#c4b5fd"/><rect x="66" y="0" width="18" height="4" rx="1" fill="#5eead4"/><rect x="88" y="0" width="18" height="4" rx="1" fill="#fde68a"/></g>
  </g>
</svg>
